<?xml version="1.0" standalone="no"?>
<!DOCTYPE svg PUBLIC "-//W3C//DTD SVG 20010904//EN"
 "http://www.w3.org/TR/2001/REC-SVG-20010904/DTD/svg10.dtd">
<svg version="1.0" xmlns="http://www.w3.org/2000/svg"
 width="30.000000pt" height="30.000000pt" viewBox="0 0 200.000000 200.000000"
 preserveAspectRatio="xMidYMid meet">

<g transform="translate(0.000000,200.000000) scale(0.100000,-0.100000)"
fill="#fff" stroke="none">
<path d="M890 1635 c-234 -47 -415 -206 -498 -437 -23 -64 -26 -88 -26 -198
-1 -104 3 -137 22 -195 24 -72 57 -136 98 -192 20 -27 22 -36 13 -60 -16 -43
-56 -91 -100 -120 -21 -14 -39 -29 -39 -33 0 -14 95 -34 154 -33 43 1 74 9
118 31 l61 30 66 -28 c95 -41 175 -53 294 -48 171 9 312 72 438 198 53 53 77
89 112 161 54 112 67 169 67 291 0 313 -221 573 -538 634 -88 17 -155 17 -242
-1z m233 -351 c57 -19 129 -81 164 -141 35 -60 44 -176 19 -251 -22 -64 -79
-129 -147 -167 -49 -27 -63 -30 -144 -30 -74 0 -98 4 -137 23 -98 48 -163 142
-174 250 -14 137 71 271 203 318 52 18 160 17 216 -2z"/>
</g>
</svg>
